<svg id="Capa_1" data-name="Capa 1" xmlns="http://www.w3.org/2000/svg" viewBox="0 0 1298.27 864.59"><defs><style>.cls-1{fill:#ebebeb;}.cls-2{fill:#d8d8d8;}</style></defs><rect class="cls-1" width="1298.27" height="864.59"/><path class="cls-2" d="M630.11,334.72a59.55,59.55,0,0,0-29.6-9.4c-20-1.23-36.71,5.25-48.66,21.85-14,19.41-18.83,41.18-15.39,64.7,2.4,16.46,10.86,29.12,25.76,37,14.35,7.55,29.69,9.22,45.54,6.62,9.7-1.6,18.82-4.72,26.27-11.5,5.71-5.19,8.57-11.55,7.74-19.41-.73-6.84-3.69-9.2-10.3-8.53-9.88,1-19.67.79-28.77-3.92a22.57,22.57,0,0,1-12.41-16.35c10.07,4.45,19.9,7.18,30.39,6.33,9.9-.8,17.66-5.12,22.32-14.21,3.74-7.28,4.78-15.09,4.07-23.1C646,352.25,641,341.82,630.11,334.72Zm-8.81,33.52c-.34,4.79-3.61,8.54-7.15,8.25s-6.55-4.52-6.45-9.25c0-.19.1-.63.18-1.07.73-4.35,3.38-7.18,6.68-7.15s5.94,2.89,6.6,7.23A9.52,9.52,0,0,1,621.3,368.24Z"/><path class="cls-2" d="M740.68,352.87c-19.83-12.64-40.86-12.57-61.87-2.61-10,4.75-15.9,13.05-18,23.91a60.76,60.76,0,0,0-.21,21c2.82,18.6,15.33,29.48,34.09,29.79a51.5,51.5,0,0,0,25.81-6.64,12.13,12.13,0,0,1-2.68,6.33c-4.41,6.14-10.73,9.23-17.84,11-8.9,2.19-17.72,1-26.55-.71-5.59-1.1-9.3,3.21-7.73,8.69,2.38,8.33,7.88,14.12,15.27,18.2,21.7,12,50.87,5.71,66.91-14.69,11.85-15.08,16.83-32.59,16.08-51.58C763.21,377.65,755.94,362.59,740.68,352.87ZM688.3,396c-3.21-.31-6-4.85-5.38-8.86a10.28,10.28,0,0,1,.41-1.61c.86-2.73,2.25-5,5.48-4.91s4.45,2.56,5.27,5.22a9.11,9.11,0,0,1,.24,2C694.35,392.56,691.5,396.27,688.3,396Z"/></svg>