<svg id="Capa_1" data-name="Capa 1" xmlns="http://www.w3.org/2000/svg" xmlns:xlink="http://www.w3.org/1999/xlink" viewBox="0 0 132.89 87.75"><defs><style>.cls-1{fill:url(#Degradado_sin_nombre_11);}.cls-2{fill:url(#Degradado_sin_nombre_11-2);}.cls-3{fill:url(#Degradado_sin_nombre_11-3);}</style><linearGradient id="Degradado_sin_nombre_11" x1="18.72" y1="61.37" x2="-2.38" y2="40.27" gradientUnits="userSpaceOnUse"><stop offset="0" stop-color="#f39540"/><stop offset="1" stop-color="#e65438"/></linearGradient><linearGradient id="Degradado_sin_nombre_11-2" x1="135.27" y1="61.37" x2="114.17" y2="40.27" xlink:href="#Degradado_sin_nombre_11"/><linearGradient id="Degradado_sin_nombre_11-3" x1="106.24" y1="91.06" x2="26.05" y2="10.87" xlink:href="#Degradado_sin_nombre_11"/></defs><path class="cls-1" d="M14,36.5H11.37l-9,0A2.33,2.33,0,0,0,.06,38.78L0,62.81a2.32,2.32,0,0,0,2.32,2.33l9,0H14a2.32,2.32,0,0,0,2.32-2.32l.07-24A2.32,2.32,0,0,0,14,36.5Z"/><path class="cls-2" d="M130.57,36.49l-9,0H119a2.32,2.32,0,0,0-2.33,2.32l-.06,24a2.31,2.31,0,0,0,2.32,2.33h2.65l9,0a2.33,2.33,0,0,0,2.33-2.32l.06-24A2.34,2.34,0,0,0,130.57,36.49Z"/><path class="cls-3" d="M107.18,14.38h-2.56l-10.87,0,0-11.88A2.32,2.32,0,0,0,91.46.13H89.4a2.33,2.33,0,0,0-2.34,2.32l0,11.88-41.59-.1,0-11.88A2.32,2.32,0,0,0,43.15,0H41.08a2.33,2.33,0,0,0-2.34,2.32l0,11.88-12.54,0h-.89a6.11,6.11,0,0,0-6.12,6.09L19,81.44a6.1,6.1,0,0,0,6.08,6.11l81.9.2a6.09,6.09,0,0,0,6.11-6.09l.16-61.17A6.11,6.11,0,0,0,107.18,14.38ZM95.53,36.18a7.9,7.9,0,1,1-7.89,7.9A7.91,7.91,0,0,1,95.53,36.18Zm-59.1,0a7.9,7.9,0,1,1-7.89,7.9A7.9,7.9,0,0,1,36.43,36.18Zm74.22,35.21H22.22V63.71h88.43Z"/></svg>