<svg id="Capa_1" data-name="Capa 1" xmlns="http://www.w3.org/2000/svg" viewBox="0 0 132.95 87.79"><defs><style>.cls-1{fill:#5e5e5d;}</style></defs><path class="cls-1" d="M14,36.51H11.37l-9,0A2.33,2.33,0,0,0,.06,38.8L0,62.84a2.33,2.33,0,0,0,2.32,2.33l9,0H14a2.32,2.32,0,0,0,2.32-2.32l.06-24A2.32,2.32,0,0,0,14,36.51Z"/><path class="cls-1" d="M130.63,36.51l-9,0H119a2.32,2.32,0,0,0-2.33,2.32l-.06,24a2.32,2.32,0,0,0,2.32,2.33h2.65l9,0a2.33,2.33,0,0,0,2.34-2.32l.06-24A2.33,2.33,0,0,0,130.63,36.51Z"/><path class="cls-1" d="M107.22,14.38h-2.55l-10.88,0,0-11.88A2.32,2.32,0,0,0,91.5.13H89.43A2.33,2.33,0,0,0,87.1,2.44l0,11.89-41.61-.11,0-11.88A2.33,2.33,0,0,0,43.16,0H41.1a2.33,2.33,0,0,0-2.34,2.32l0,11.89-12.54,0H25.3a6.11,6.11,0,0,0-6.12,6.08L19,81.47a6.1,6.1,0,0,0,6.08,6.12l81.94.2a6.11,6.11,0,0,0,6.11-6.09l.15-61.21A6.1,6.1,0,0,0,107.22,14.38ZM95.58,36.2a7.9,7.9,0,1,1-7.9,7.9A7.9,7.9,0,0,1,95.58,36.2Zm-59.13,0a7.9,7.9,0,1,1-7.9,7.9A7.89,7.89,0,0,1,36.45,36.2ZM110.7,71.42H22.23V63.74H110.7Z"/></svg>