<svg id="Capa_1" data-name="Capa 1" xmlns="http://www.w3.org/2000/svg" xmlns:xlink="http://www.w3.org/1999/xlink" viewBox="0 0 142.15 87.75"><defs><style>.cls-1{fill:url(#Degradado_sin_nombre_11);}</style><linearGradient id="Degradado_sin_nombre_11" x1="119.49" y1="89.66" x2="18.54" y2="-11.28" gradientUnits="userSpaceOnUse"><stop offset="0" stop-color="#f39540"/><stop offset="1" stop-color="#e65438"/></linearGradient></defs><path class="cls-1" d="M142.15,3.42A3.42,3.42,0,0,0,138.73,0H12.39A12.39,12.39,0,0,0,0,12.39v63A12.39,12.39,0,0,0,12.39,87.75H116.26a12.4,12.4,0,0,0,12.4-12.39v-59L140.79,6.15v0A3.38,3.38,0,0,0,142.15,3.42ZM69.2,69.22H19.08V62.88H69.2Zm38-22.17H19.08V40.7h88.13Zm0-22.18H19.08V18.53h88.13Z"/></svg>