<svg id="Capa_1" data-name="Capa 1" xmlns="http://www.w3.org/2000/svg" xmlns:xlink="http://www.w3.org/1999/xlink" viewBox="0 0 447.17 279.15"><defs><style>.cls-1{fill:url(#Degradado_sin_nombre_11);}.cls-2{fill:url(#Degradado_sin_nombre_11-2);}</style><linearGradient id="Degradado_sin_nombre_11" x1="179.33" y1="242.26" x2="51.47" y2="20.79" gradientUnits="userSpaceOnUse"><stop offset="0" stop-color="#f39540"/><stop offset="1" stop-color="#e65438"/></linearGradient><linearGradient id="Degradado_sin_nombre_11-2" x1="399.28" y1="256.63" x2="279.59" y2="49.33" xlink:href="#Degradado_sin_nombre_11"/></defs><path class="cls-1" d="M185.27,18.68c-17.61-11.52-37-17.12-57.89-18.4C88.16-2.12,55.57,10.56,32.19,43,4.85,81-4.65,123.57,2.08,169.58c4.71,32.2,21.25,57,50.39,72.3,28.07,14.77,58.08,18,89.09,12.94,19-3.11,36.81-9.22,51.38-22.48,11.17-10.16,16.77-22.59,15.14-38-1.41-13.39-7.22-18-20.14-16.68-19.32,2-38.47,1.55-56.28-7.68-12.62-6.54-21-16.51-24.28-32,19.71,8.7,38.93,14,59.46,12.38,19.36-1.56,34.54-10,43.66-27.79,7.31-14.24,9.35-29.53,7.95-45.19C216.26,53,206.49,32.56,185.27,18.68ZM168,84.24c-.66,9.38-7,16.71-14,16.13s-12.81-8.83-12.62-18.08c.07-.38.2-1.24.35-2.1,1.44-8.5,6.62-14,13.08-14s11.61,5.65,12.9,14.14A18.29,18.29,0,0,1,168,84.24Z"/><path class="cls-2" d="M401.57,54.17c-38.79-24.73-79.93-24.59-121-5.11-19.64,9.31-31.1,25.53-35.29,46.77-2.7,13.65-2.49,27.37-.41,41.11,5.51,36.38,30,57.66,66.69,58.27,17.83.3,34.3-4.27,50.48-13-.43,5.25-2.73,8.9-5.25,12.4-8.62,12-21,18.06-34.88,21.47-17.42,4.29-34.67,2-51.95-1.39-10.92-2.15-18.19,6.28-15.12,17,4.67,16.3,15.42,27.62,29.89,35.61,42.44,23.46,99.5,11.16,130.86-28.74,23.19-29.5,32.94-63.75,31.47-100.9C445.64,102.65,431.41,73.2,401.57,54.17ZM299.1,138.46c-6.28-.61-11.7-9.49-10.53-17.32a22,22,0,0,1,.81-3.17c1.68-5.32,4.4-9.78,10.72-9.6s8.7,5,10.31,10.22a17.39,17.39,0,0,1,.47,3.84C310.94,131.81,305.36,139.06,299.1,138.46Z"/></svg>