<svg id="Capa_1" data-name="Capa 1" xmlns="http://www.w3.org/2000/svg" viewBox="0 0 128 171.21"><defs><style>.cls-1{fill:#9f9f9f;}</style></defs><path class="cls-1" d="M127.58,143.87Q120.7,118,113.74,92.05a10,10,0,0,0-7.66-7.73,11.42,11.42,0,0,0-6.24.32q-12.77,3.45-25.52,6.9T48.94,98.3c-6,1.61-9.29,6.86-7.71,12.88,4.62,17.53,9.35,35,14.05,52.52a8.93,8.93,0,0,0,2.37,4.15c1.4,1.93,3.55,2.59,5.64,3.36h4a2.28,2.28,0,0,1,.54-.31c17.48-4.69,35-9.33,52.42-14.08C126.17,155.22,129.16,149.79,127.58,143.87ZM95.29,100.92a7.69,7.69,0,0,1,7.79,7.69,7.72,7.72,0,0,1-15.43.1A7.6,7.6,0,0,1,95.29,100.92Zm-10.86,19a7.74,7.74,0,1,1-.17,15.47,7.74,7.74,0,0,1,.17-15.47Zm-11,18.94a7.73,7.73,0,0,1,7.68,7.82,7.62,7.62,0,0,1-7.81,7.64,7.73,7.73,0,0,1-7.64-7.69A7.83,7.83,0,0,1,73.44,138.83Z"/><path class="cls-1" d="M72.76,79.43q7.17-26.27,14.08-52.59a9.37,9.37,0,0,0-3.16-10.07,9.65,9.65,0,0,0-4.48-2.4l-30-8L25.84,0h-3a11.21,11.21,0,0,0-8.76,8.69C9.75,25.14,5.29,41.55.86,58a15.66,15.66,0,0,0-.71,6.89,9.92,9.92,0,0,0,7.58,8q26,7,51.94,13.95C65.64,88.41,71.13,85.42,72.76,79.43Zm-10-54.49a7.73,7.73,0,0,1,7.49,7.84,7.84,7.84,0,0,1-7.92,7.62,7.72,7.72,0,0,1-7.52-8A7.62,7.62,0,0,1,62.78,24.94ZM54.43,54.85a7.8,7.8,0,0,1,7.81,7.72,7.7,7.7,0,0,1-7.76,7.72,7.61,7.61,0,0,1-7.68-7.76A7.7,7.7,0,0,1,54.43,54.85ZM32.53,16.92a7.62,7.62,0,0,1,7.74,7.71,7.71,7.71,0,0,1-7.75,7.75,7.81,7.81,0,0,1-7.69-7.85A7.7,7.7,0,0,1,32.53,16.92Zm-7.9,29.9a7.71,7.71,0,0,1,7.61,7.71,7.59,7.59,0,0,1-7.7,7.73,7.72,7.72,0,1,1,.09-15.44Z"/></svg>