<?xml version="1.0" encoding="UTF-8"?><svg id="Capa_1" xmlns="http://www.w3.org/2000/svg" xmlns:xlink="http://www.w3.org/1999/xlink" viewBox="0 0 284.34 284.45"><defs><style>.cls-1{fill:#fff;}.cls-2{fill:url(#Degradado_sin_nombre_11);}</style><linearGradient id="Degradado_sin_nombre_11" x1="223.45" y1="282.99" x2="60.9" y2="1.44" gradientTransform="matrix(1, 0, 0, 1, 0, 0)" gradientUnits="userSpaceOnUse"><stop offset="0" stop-color="#f39540"/><stop offset="1" stop-color="#e65438"/></linearGradient></defs><path class="cls-2" d="M.04,195.31c0,5.63,.11,11.28,1.13,16.82,7.88,42.91,43.08,72.26,86.7,72.3,36.27,.03,72.54,0,108.81,.01,7.69,0,15.27-.85,22.7-2.77,37.84-9.81,64.49-43.43,64.81-82.5,.31-37.85,.05-75.7,.09-113.55,0-5.43-.5-10.82-1.62-16.09C273.81,28.16,239.05,.08,196.64,.02c-36.16-.05-72.32,0-108.48-.01-20.95,0-39.87,6.09-56.11,19.45C12.68,35.4,1.49,55.98,.43,81.1c-.86,20.35-.17,40.77-.17,61.15H.04c0,17.69,0,35.37,0,53.06Z"/><path class="cls-1" d="M122.43,80.1c-9.06-5.93-19.06-8.81-29.78-9.46-20.17-1.24-36.94,5.29-48.97,21.99-14.07,19.53-18.96,41.44-15.49,65.12,2.42,16.56,10.93,29.31,25.92,37.2,14.44,7.6,29.88,9.28,45.84,6.66,9.76-1.6,18.94-4.75,26.43-11.57,5.75-5.23,8.63-11.62,7.79-19.54-.73-6.89-3.72-9.26-10.36-8.58-9.94,1.02-19.79,.8-28.95-3.95-6.5-3.37-10.83-8.5-12.49-16.45,10.14,4.48,20.03,7.22,30.59,6.37,9.96-.8,17.77-5.15,22.46-14.3,3.76-7.33,4.81-15.19,4.09-23.25-1.12-12.59-6.15-23.08-17.07-30.23Zm-8.87,33.73c-.34,4.82-3.63,8.6-7.19,8.3-3.54-.3-6.59-4.54-6.49-9.3,.03-.19,.1-.64,.18-1.08,.74-4.37,3.41-7.22,6.73-7.2,3.33,.03,5.97,2.91,6.64,7.28,.1,.66,.18,1.34,.13,2.01Z"/><path class="cls-1" d="M233.72,98.36c-19.96-12.72-41.12-12.65-62.27-2.63-10.1,4.79-16,13.13-18.16,24.06-1.39,7.02-1.28,14.08-.21,21.15,2.83,18.71,15.43,29.66,34.31,29.98,9.17,.15,17.65-2.2,25.97-6.69-.22,2.7-1.41,4.58-2.7,6.38-4.44,6.18-10.8,9.29-17.94,11.05-8.96,2.21-17.84,1.04-26.73-.72-5.62-1.11-9.36,3.23-7.78,8.74,2.4,8.38,7.93,14.21,15.37,18.32,21.84,12.07,51.19,5.74,67.33-14.79,11.93-15.18,16.94-32.8,16.19-51.91-.71-18.01-8.03-33.17-23.39-42.96Zm-52.72,43.36c-3.23-.31-6.02-4.88-5.42-8.91,.08-.55,.25-1.1,.42-1.63,.86-2.74,2.26-5.03,5.51-4.94,3.26,.09,4.47,2.58,5.3,5.25,.23,.74,.19,1.56,.24,1.98,.03,4.82-2.84,8.56-6.06,8.24Z"/></svg>