<svg id="Capa_1" data-name="Capa 1" xmlns="http://www.w3.org/2000/svg" xmlns:xlink="http://www.w3.org/1999/xlink" viewBox="0 0 671.64 751.09"><defs><style>.cls-1{fill:url(#Degradado_sin_nombre_11);}.cls-2{fill:#fff;}</style><linearGradient id="Degradado_sin_nombre_11" x1="691.5" y1="731.22" x2="-23.7" y2="16.02" gradientUnits="userSpaceOnUse"><stop offset="0" stop-color="#f39540"/><stop offset="1" stop-color="#e65438"/></linearGradient></defs><rect class="cls-1" width="671.64" height="751.09"/><path class="cls-2" d="M317.08,316.41a57,57,0,0,0-28.32-9c-19.18-1.18-35.12,5-46.55,20.9-13.38,18.57-18,39.4-14.73,61.9,2.3,15.75,10.39,27.87,24.64,35.36,13.73,7.23,28.41,8.83,43.58,6.33,9.27-1.52,18-4.51,25.13-11,5.46-5,8.2-11.05,7.41-18.58-.7-6.54-3.54-8.8-9.86-8.15-9.45,1-18.81.75-27.52-3.76A21.6,21.6,0,0,1,279,374.79c9.64,4.25,19,6.86,29.08,6,9.47-.76,16.9-4.89,21.36-13.59a39.78,39.78,0,0,0,3.89-22.1C332.24,333.18,327.46,323.2,317.08,316.41Zm-8.43,32.07c-.32,4.58-3.45,8.17-6.84,7.89s-6.26-4.32-6.17-8.85l.17-1c.71-4.16,3.24-6.87,6.4-6.84s5.68,2.76,6.31,6.91A8.77,8.77,0,0,1,308.65,348.48Z"/><path class="cls-2" d="M422.87,333.77c-19-12.09-39.09-12-59.2-2.5-9.6,4.55-15.21,12.49-17.26,22.88a58.29,58.29,0,0,0-.19,20.11c2.69,17.79,14.67,28.2,32.61,28.5a49.34,49.34,0,0,0,24.7-6.36,11.63,11.63,0,0,1-2.57,6.06c-4.22,5.88-10.27,8.83-17.06,10.51-8.53,2.09-17,1-25.41-.68-5.35-1.06-8.9,3.06-7.4,8.31,2.28,8,7.54,13.51,14.62,17.42,20.76,11.47,48.67,5.45,64-14.06,11.34-14.43,16.1-31.18,15.39-49.35C444.43,357.49,437.47,343.08,422.87,333.77ZM372.75,375c-3.07-.3-5.72-4.64-5.15-8.47A10.37,10.37,0,0,1,368,365c.82-2.61,2.15-4.79,5.24-4.7s4.26,2.45,5.05,5a8.19,8.19,0,0,1,.22,1.88C378.54,371.74,375.81,375.29,372.75,375Z"/></svg>