<svg id="Capa_1" data-name="Capa 1" xmlns="http://www.w3.org/2000/svg" viewBox="0 0 382.53 387.93"><defs><style>.cls-1{fill:none;}.cls-2{fill:#fff;}</style></defs><path class="cls-1" d="M.07,193.91Q.07,98.5,0,3.06C0,.41.73,0,3.16,0Q191.32.12,379.47,0c2.65,0,3,.73,3,3.16q-.09,190.86,0,381.72c0,2.65-.73,3-3.17,3q-188.14-.09-376.3,0c-2.65,0-3.05-.72-3.05-3.16Q.13,289.34.07,193.91Z"/><path class="cls-2" d="M158.49,90.55C143.42,80.69,126.8,75.9,109,74.81c-33.54-2-61.42,8.79-81.42,36.56C4.15,143.84-4,180.28,1.78,219.64c4,27.54,18.18,48.73,43.1,61.85,24,12.63,49.69,15.43,76.22,11.07,16.22-2.67,31.48-7.9,44-19.24C174.6,264.63,179.4,254,178,240.84c-1.21-11.45-6.18-15.4-17.23-14.27-16.53,1.69-32.91,1.32-48.14-6.56-10.8-5.6-18-14.13-20.77-27.36,16.86,7.44,33.3,12,50.86,10.59,16.56-1.34,29.55-8.57,37.35-23.78,6.25-12.18,8-25.26,6.8-38.66C185,119.88,176.64,102.42,158.49,90.55Zm-14.75,56.08c-.56,8-6,14.3-12,13.8s-11-7.55-10.79-15.47l.29-1.8c1.23-7.27,5.66-12,11.19-12s9.93,4.83,11,12.1A14.93,14.93,0,0,1,143.74,146.63Z"/><path class="cls-2" d="M343.52,120.91c-33.19-21.16-68.37-21-103.54-4.38-16.8,8-26.6,21.84-30.19,40a101.81,101.81,0,0,0-.34,35.17c4.71,31.11,25.66,49.32,57,49.84,15.26.26,29.35-3.65,43.19-11.12-.37,4.49-2.34,7.61-4.49,10.61-7.38,10.27-18,15.44-29.84,18.37-14.9,3.66-29.66,1.72-44.44-1.19-9.34-1.85-15.56,5.36-12.93,14.54,4,13.94,13.18,23.62,25.56,30.46,36.31,20.07,85.12,9.54,112-24.58,19.84-25.24,28.17-54.54,26.91-86.32C381.22,162.38,369.05,137.18,343.52,120.91ZM255.86,193c-5.37-.52-10-8.12-9-14.81a17.09,17.09,0,0,1,.69-2.71c1.43-4.56,3.77-8.37,9.17-8.22s7.44,4.29,8.82,8.74a15.45,15.45,0,0,1,.4,3.29C266,187.32,261.21,193.53,255.86,193Z"/></svg>